<?xml version="1.0" encoding="utf-8"?>
<!-- Generator: Adobe Illustrator 22.1.0, SVG Export Plug-In . SVG Version: 6.00 Build 0)  -->
<svg version="1.1" id="图层_1" xmlns="http://www.w3.org/2000/svg" xmlns:xlink="http://www.w3.org/1999/xlink" x="0px" y="0px"
	 viewBox="0 0 20 20" style="enable-background:new 0 0 20 20;" xml:space="preserve">
<style type="text/css">
	.st0{fill:#FFFFFF;}
</style>
<g>
	<path class="st0" d="M12,15.4c-0.1,0-0.1,0-0.2,0l-3.8,1c-0.3,0.1-0.5,0.3-0.4,0.6c0,0.3,0.2,0.6,0.6,0.6c0.1,0,0.1,0,0.2,0l3.8-1
		c0.3-0.1,0.5-0.3,0.4-0.6C12.5,15.6,12.3,15.4,12,15.4z"/>
	<path class="st0" d="M11,17.4L11,17.4c-0.1,0-0.2,0-0.3,0.1c-0.3,0.2-0.5,0.3-0.7,0.3h0c-0.2,0-0.3-0.1-0.4-0.1c0,0-0.1,0-0.1-0.1
		c-0.1-0.1-0.1-0.1-0.1-0.1c-0.1,0-0.2-0.1-0.3-0.1c-0.3,0-0.5,0.2-0.6,0.4c-0.1,0.2,0,0.4,0.2,0.6C9,18.8,9.5,19,10,19
		c0.5,0,0.9-0.2,1.4-0.4c0.2-0.2,0.3-0.4,0.2-0.7C11.5,17.6,11.3,17.4,11,17.4z"/>
	<path class="st0" d="M14.3,6.7L14.3,6.7c-0.4-0.8-1-1.4-1.8-1.8c-0.7-0.4-1.6-0.6-2.4-0.6C9.4,4.2,8.6,4.4,8,4.7
		C7.3,5,6.7,5.4,6.2,6c-0.9,1.1-1.3,2.6-1,4.2c0.3,1.5,1.1,2.7,2.2,3.4c0.1,0.1,0.2,0.1,0.3,0.1c0.3,0,0.5-0.2,0.6-0.5
		c0.1-0.3,0-0.5-0.3-0.7c-1.5-0.9-2-3.1-1.5-4.6C7,6.4,8.4,5.4,10,5.4c0.7,0,1.4,0.2,2,0.5c0.8,0.5,1.4,1.2,1.6,2.2
		c0.3,1,0.1,2.1-0.4,3c-0.2,0.3-0.5,0.7-0.7,1c-0.2,0.2-0.3,0.4-0.5,0.6c-0.3,0.4-0.4,0.7-0.4,1.1l0,0.2L8,14.9
		c-0.3,0.1-0.5,0.4-0.4,0.6c0,0.3,0.2,0.5,0.6,0.5c0.1,0,0.1,0,0.2,0l2.7-0.7c0.1,0,0.2-0.1,0.3-0.1c0.7-0.2,1.3-0.3,1.4-1.4
		c0-0.4,0.3-0.7,0.6-1c0.1-0.1,0.1-0.2,0.2-0.2c0.3-0.4,0.8-1,1-1.6C15.2,9.6,15.1,8.1,14.3,6.7z"/>
	<path class="st0" d="M4,9.3c0-0.3-0.3-0.6-0.6-0.6H2.2c-0.3,0-0.6,0.3-0.6,0.6c0,0.3,0.3,0.6,0.6,0.6h1.2C3.7,9.9,4,9.6,4,9.3
		L4,9.3z"/>
	<path class="st0" d="M17.8,8.7h-1.2c-0.3,0-0.6,0.3-0.6,0.6c0,0.3,0.3,0.6,0.6,0.6h1.2c0.3,0,0.6-0.3,0.6-0.6
		C18.4,8.9,18.1,8.7,17.8,8.7z"/>
	<path class="st0" d="M4.9,5C5.2,5.2,5.6,5.2,5.8,5C6,4.7,6,4.4,5.8,4.2L5,3.3C4.7,3.1,4.3,3.1,4.1,3.4C3.9,3.6,3.9,4,4.1,4.2L4.9,5
		z"/>
	<path class="st0" d="M15.1,13.5c-0.3-0.2-0.6-0.2-0.9,0.1c-0.2,0.2-0.2,0.6,0,0.8l0.8,0.8c0.3,0.2,0.6,0.2,0.9-0.1
		c0.2-0.2,0.2-0.6,0-0.8L15.1,13.5z"/>
	<path class="st0" d="M10,3.4L10,3.4c0.3,0,0.6-0.3,0.6-0.6V1.6C10.6,1.2,10.3,1,10,1C9.7,1,9.4,1.3,9.4,1.6v1.2
		C9.4,3.1,9.7,3.4,10,3.4z"/>
	<path class="st0" d="M4.9,13.5L4.9,13.5l-0.8,0.8c-0.2,0.2-0.2,0.6,0,0.9c0.2,0.2,0.6,0.2,0.9,0l0.8-0.8c0.2-0.2,0.2-0.6,0-0.9
		C5.6,13.3,5.2,13.3,4.9,13.5z"/>
	<path class="st0" d="M15.1,5L15.1,5l0.8-0.8c0.2-0.2,0.2-0.6,0-0.9c-0.2-0.2-0.6-0.2-0.9,0l-0.8,0.8C14,4.4,14,4.8,14.3,5
		C14.5,5.3,14.9,5.3,15.1,5z"/>
</g>
</svg>
