<?xml version="1.0" encoding="utf-8"?>
<!-- Generator: Adobe Illustrator 22.1.0, SVG Export Plug-In . SVG Version: 6.00 Build 0)  -->
<svg version="1.1" id="图层_1" xmlns="http://www.w3.org/2000/svg" xmlns:xlink="http://www.w3.org/1999/xlink" x="0px" y="0px"
	 viewBox="0 0 20 20" style="enable-background:new 0 0 20 20;" xml:space="preserve">
<style type="text/css">
	.st0{fill:#FFFFFF;}
</style>
<path class="st0" d="M9.4,19.2c-1.2,0-2.4-0.2-3.5-0.7c-1.1-0.4-2-1.1-2.8-1.9c-0.8-0.8-1.5-1.8-1.9-2.8c-0.5-1.1-0.7-2.3-0.7-3.5
	c0-1.2,0.2-2.4,0.7-3.5c0.4-1.1,1.1-2,1.9-2.8c0.8-0.8,1.8-1.5,2.8-1.9C7,1.7,8.2,1.4,9.4,1.4c1.7,0,3.3,0.5,4.7,1.4
	c0.2,0.1,0.3,0.3,0.3,0.5c0,0.2,0,0.4-0.1,0.6C14.2,4,14,4.2,13.7,4.2c-0.1,0-0.3,0-0.4-0.1c-1.2-0.7-2.6-1.1-3.9-1.1
	C5.3,2.9,2,6.2,2,10.3c0,4.1,3.3,7.4,7.4,7.4c4.1,0,7.4-3.3,7.4-7.4c0-1-0.2-1.9-0.6-2.8c-0.1-0.2-0.1-0.4,0-0.6
	c0.1-0.2,0.2-0.3,0.4-0.4c0.1,0,0.2-0.1,0.3-0.1c0.3,0,0.6,0.2,0.7,0.5c0.5,1.1,0.7,2.2,0.7,3.4c0,1.2-0.2,2.4-0.7,3.5
	c-0.4,1.1-1.1,2-1.9,2.8c-0.8,0.8-1.8,1.5-2.8,1.9C11.7,18.9,10.6,19.2,9.4,19.2z"/>
<path class="st0" d="M9.4,11.7c-0.2,0-0.4-0.1-0.5-0.2L5.7,8.3C5.6,8.2,5.5,8,5.5,7.8c0-0.2,0.1-0.4,0.2-0.5C5.9,7.1,6,7.1,6.2,7.1
	c0.2,0,0.4,0.1,0.5,0.2l2.6,2.6L18.2,1c0.1-0.1,0.3-0.2,0.5-0.2c0.2,0,0.4,0.1,0.5,0.2c0.1,0.1,0.2,0.3,0.2,0.5
	c0,0.2-0.1,0.4-0.2,0.5l-9.4,9.4C9.8,11.6,9.6,11.7,9.4,11.7z"/>
</svg>
